<?xml version="1.0" standalone="no"?>
<!DOCTYPE svg PUBLIC "-//W3C//DTD SVG 20010904//EN"
 "http://www.w3.org/TR/2001/REC-SVG-20010904/DTD/svg10.dtd">
<svg version="1.0" xmlns="http://www.w3.org/2000/svg"
 width="150.000000pt" height="175.000000pt" viewBox="0 0 150.000000 175.000000"
 preserveAspectRatio="xMidYMid meet">
<metadata>
Created by potrace 1.16, written by Peter Selinger 2001-2019
</metadata>
<g transform="translate(0.000000,175.000000) scale(0.100000,-0.100000)"
fill="#FFFFFF" stroke="none">
<path d="M34 1716 l-34 -34 0 -807 0 -807 34 -34 34 -34 297 0 297 0 34 34 34
34 0 804 c0 883 4 830 -60 863 -24 12 -81 15 -316 15 l-286 0 -34 -34z"/>
<path d="M795 895 l-25 -24 0 -411 0 -411 25 -24 24 -25 319 0 319 0 21 23
c22 23 22 26 22 436 l0 412 -25 24 -24 25 -316 0 -316 0 -24 -25z"/>
</g>
</svg>
